<svg xmlns="http://www.w3.org/2000/svg" width="95.941" height="78.3" viewBox="0 0 95.941 78.3">
  <g id="Group_3" data-name="Group 3" transform="translate(-198 -245.7)">
    <g id="Group_2" data-name="Group 2" transform="translate(198 245.7)">
      <path id="Path_1" data-name="Path 1" d="M44.684-27.933H67.136l-13.1-19.245c7.484-3.831,11.761-10.6,11.761-19.6C65.8-81.212,54.752-90.3,37.378-90.3H7.353v62.367H28.38V-43.614h5.7Zm-.089-38.846c0,4.544-2.762,7.306-8.553,7.306H28.38V-74.085h7.662C41.833-74.085,44.595-71.323,44.595-66.779Z" transform="translate(28.805 90.3)" fill="#202020"/>
      <g id="Group_1" data-name="Group 1" transform="translate(0 15.402)">
        <path id="Union_1" data-name="Union 1" d="M15.094,46V30.906H0V15.094H15.094V0H30.906V15.094H46V30.906H30.906V46Z" transform="translate(0 -0.102)" fill="#d61212"/>
      </g>
    </g>
    <text id="H_O_S_P_I_T_A_L_S" data-name="H O S P I  T A L S" transform="translate(210 322)" fill="#707070" font-size="9" font-family="Montserrat-ExtraLight, Montserrat" font-weight="200"><tspan x="0" y="0" xml:space="preserve">H O S P I  T A L S</tspan></text>
  </g>
</svg>
